<svg width="128" height="128" viewBox="0 0 128 128" fill="none" xmlns="http://www.w3.org/2000/svg">
<g clip-path="url(#clip0_371_2806)">
<rect width="128" height="128" rx="32" fill="#FE99FF"/>
<path d="M72.0884 103.791L63.9934 112L55.9116 103.791L59.602 100.029L63.9934 95.5684L72.0884 103.791Z" fill="#0F0F0F"/>
<path d="M52.3178 44.1464L43.2315 53.2132L42.0371 54.4203L32.4141 64.0372L44.104 75.7195L54.0625 65.7675L62.2762 73.9759L44.104 92.1231L16 64.0372L22.1603 57.8675L25.0726 54.957L29.703 50.343L44.104 35.9378L52.3178 44.1464Z" fill="#0F0F0F"/>
<path d="M112 64.0372L83.8826 92.1231L75.6689 83.9282L95.5725 64.0372L83.8826 52.3548L73.9376 62.2936L65.7238 54.0852L83.8826 35.9378L112 64.0372Z" fill="#0F0F0F"/>
<path d="M72.1976 24.2014L63.9908 32.403L55.7842 24.2014L63.9908 16L72.1976 24.2014Z" fill="#0F0F0F"/>
</g>
<defs>
<clipPath id="clip0_371_2806">
<rect width="128" height="128" rx="32" fill="white"/>
</clipPath>
</defs>
</svg>
