<svg width="14" height="14" viewBox="0 0 14 14" fill="none" xmlns="http://www.w3.org/2000/svg">
<path d="M7.03476 1.16325L7.07407 1.16667H7.22959C7.73751 1.16685 7.99301 1.76366 7.67164 2.1311L7.62664 2.17782C6.97706 2.78122 6.55931 3.59304 6.4463 4.47241C6.3333 5.35186 6.53197 6.24338 7.00799 6.99146C7.484 7.73948 8.20744 8.29699 9.05193 8.56714C9.89641 8.83725 10.809 8.8026 11.6308 8.46973C12.1102 8.27517 12.5868 8.75596 12.3879 9.23421C11.9826 10.2093 11.3198 11.0561 10.471 11.6843C9.62217 12.3124 8.61888 12.6983 7.56796 12.8009C6.51707 12.9035 5.45798 12.7191 4.50375 12.2671C3.54945 11.8149 2.73558 11.1117 2.14934 10.2334C1.56319 9.35513 1.22613 8.33435 1.17465 7.2797C1.12319 6.22495 1.35916 5.17578 1.85711 4.24455C2.35506 3.31336 3.09673 2.53499 4.00245 1.99211C4.90799 1.44936 5.94371 1.16242 6.99944 1.16211L7.03476 1.16325Z" fill="white"/>
</svg>
