<svg width="18" height="18" viewBox="0 0 18 18" fill="none" xmlns="http://www.w3.org/2000/svg">
<path fill-rule="evenodd" clip-rule="evenodd" d="M6.82397 2.25366C6.99572 2.27068 7.15717 2.34662 7.28027 2.46973L9.31055 4.5H14.25C14.8467 4.5 15.4189 4.73722 15.8408 5.15918C16.2628 5.58114 16.5 6.15326 16.5 6.75V12.75C16.5 13.3467 16.2628 13.9189 15.8408 14.3408C15.4189 14.7628 14.8467 15 14.25 15H3.75C3.15326 15 2.58114 14.7628 2.15918 14.3408C1.73722 13.9189 1.5 13.3467 1.5 12.75V4.5C1.5 3.90326 1.73722 3.33114 2.15918 2.90918C2.58114 2.48722 3.15326 2.25 3.75 2.25H6.75L6.82397 2.25366ZM3.75 3.75C3.55109 3.75 3.36038 3.82907 3.21973 3.96973C3.07907 4.11038 3 4.30109 3 4.5V12.75C3 12.9489 3.07907 13.1396 3.21973 13.2803C3.36038 13.4209 3.55109 13.5 3.75 13.5H14.25C14.4489 13.5 14.6396 13.4209 14.7803 13.2803C14.9209 13.1396 15 12.9489 15 12.75V6.75C15 6.55109 14.9209 6.36038 14.7803 6.21973C14.6572 6.09662 14.4957 6.02068 14.324 6.00366L14.25 6H9C8.80109 6 8.61038 5.92093 8.46973 5.78027L6.43945 3.75H3.75Z" fill="white" fill-opacity="0.6"/>
</svg>
