<svg width="18" height="18" viewBox="0 0 18 18" fill="none" xmlns="http://www.w3.org/2000/svg">
<path fill-rule="evenodd" clip-rule="evenodd" d="M9.27832 1.50635C9.37163 1.4943 9.46574 1.50004 9.55591 1.52246C11.3417 1.65512 13.0286 2.42147 14.3035 3.69629C15.7099 5.10277 16.5 7.0107 16.5 8.99976C16.5 9.98461 16.3063 10.9602 15.9294 11.8701C15.5526 12.78 14.9998 13.6068 14.3035 14.3032C13.6071 14.9996 12.7802 15.5523 11.8704 15.9292C11.1314 16.2353 10.349 16.4189 9.55371 16.4778C9.46372 16.4999 9.36991 16.5054 9.27686 16.4932L9 16.4998C8.9076 16.4998 8.81534 16.4966 8.72314 16.4932C8.62883 16.5055 8.53372 16.4999 8.44263 16.4771C7.64854 16.4179 6.86745 16.2348 6.12964 15.9292C5.21975 15.5523 4.39294 14.9996 3.69653 14.3032C3.00016 13.6068 2.44745 12.78 2.07056 11.8701C1.69369 10.9602 1.5 9.98461 1.5 8.99976C1.50005 7.0107 2.29005 5.10277 3.69653 3.69629C4.97122 2.42164 6.65786 1.65528 8.44336 1.52246C8.53374 1.49986 8.62812 1.49429 8.72168 1.50635C8.81426 1.50291 8.90702 1.49976 9 1.49976C9.09298 1.49976 9.18574 1.50291 9.27832 1.50635ZM7.82446 11.9998C8.08627 13.0139 8.47986 13.9927 8.99927 14.9104C9.51889 13.9925 9.91426 13.0141 10.1763 11.9998H7.82446ZM11.7188 11.9998C11.5046 12.9393 11.1899 13.8539 10.7798 14.7288C10.9543 14.6745 11.1268 14.6129 11.2961 14.5427C12.024 14.2412 12.6858 13.7998 13.2429 13.2427C13.6143 12.8713 13.933 12.4527 14.1943 11.9998H11.7188ZM3.80566 11.9998C4.06704 12.4527 4.38572 12.8713 4.75708 13.2427C5.31418 13.7998 5.97599 14.2412 6.70386 14.5427C6.87268 14.6127 7.04486 14.6732 7.21875 14.7273C6.80896 13.8529 6.49386 12.9387 6.27979 11.9998H3.80566ZM3.19116 7.49976C3.06569 7.98573 3.00002 8.48932 3 8.99976C3 9.50694 3.06556 10.0108 3.19189 10.4998H6.02637C5.98829 10.1592 5.96152 9.81669 5.94946 9.4729L5.94141 8.99976C5.94141 8.49697 5.97084 7.99631 6.02637 7.49976H3.19116ZM11.9736 7.49976C12.0292 7.99632 12.0586 8.49696 12.0586 8.99976C12.0586 9.50246 12.0299 10.0033 11.9744 10.4998H14.8081C14.9344 10.0108 15 9.50694 15 8.99976C15 8.48932 14.9343 7.98573 14.8088 7.49976H11.9736ZM7.53735 7.49976C7.47488 7.99568 7.44141 8.49649 7.44141 8.99976L7.44873 9.42017C7.46141 9.78197 7.49231 10.1422 7.53735 10.4998H10.4626C10.5252 10.0039 10.5586 9.50297 10.5586 8.99976C10.5586 8.49648 10.5252 7.99569 10.4626 7.49976H7.53735ZM7.21948 3.27002C6.29862 3.55608 5.45144 4.06251 4.75708 4.75684C4.38329 5.13062 4.06549 5.54975 3.80566 5.99976H6.28125C6.49547 5.06017 6.80928 4.14498 7.21948 3.27002ZM10.7798 3.27002C11.1901 4.14508 11.5045 5.06006 11.7188 5.99976H14.1943C13.9345 5.54975 13.6167 5.13062 13.2429 4.75684C12.5484 4.06234 11.7009 3.55604 10.7798 3.27002ZM8.99927 3.08838C8.47965 4.00627 8.08561 4.98541 7.82373 5.99976H10.1763C9.91418 4.98524 9.51906 4.0064 8.99927 3.08838Z" fill="white" fill-opacity="0.6"/>
</svg>
