<svg width="14" height="14" viewBox="0 0 14 14" fill="none" xmlns="http://www.w3.org/2000/svg">
<path d="M7.00011 11.0833C7.14294 11.0834 7.28074 11.136 7.38748 11.2309C7.49421 11.3258 7.56272 11.4565 7.57945 11.5983L7.58344 11.6667V12.25C7.58328 12.3987 7.526 12.5418 7.42394 12.6499C7.32191 12.7579 7.18259 12.8229 7.03429 12.8316C6.88592 12.8403 6.73984 12.792 6.62584 12.6966C6.51185 12.6012 6.43835 12.466 6.42076 12.3184L6.41677 12.25V11.6667C6.41677 11.512 6.47828 11.3636 6.58767 11.2542C6.69706 11.1449 6.84543 11.0833 7.00011 11.0833Z" fill="white" fill-opacity="0.2"/>
<path d="M3.67499 9.74178C3.82966 9.74179 3.97805 9.80333 4.08743 9.91268C4.18782 10.0131 4.24828 10.1469 4.25719 10.2887C4.26604 10.4303 4.22287 10.5707 4.13585 10.6829L4.08743 10.7375L3.67898 11.146C3.57409 11.2505 3.43331 11.3112 3.28535 11.3158C3.13721 11.3203 2.99262 11.2679 2.88146 11.1699C2.77035 11.0719 2.70068 10.9352 2.68663 10.7877C2.67264 10.6402 2.71512 10.493 2.80569 10.3758L2.85411 10.3211L3.26256 9.91268C3.37195 9.80332 3.52031 9.74178 3.67499 9.74178Z" fill="white" fill-opacity="0.2"/>
<path d="M10.2164 9.75147C10.3562 9.72508 10.5009 9.75049 10.6232 9.82324L10.6824 9.86426L10.7377 9.91268L11.1455 10.3211C11.2501 10.4261 11.3113 10.5667 11.3159 10.7148C11.3204 10.8629 11.268 11.0075 11.17 11.1187C11.072 11.2298 10.9353 11.2994 10.7878 11.3135C10.6404 11.3275 10.4931 11.2849 10.3759 11.1944L10.3207 11.146L9.91279 10.7375C9.81212 10.6371 9.75138 10.503 9.74246 10.361C9.73358 10.2191 9.77711 10.0791 9.86437 9.9668C9.95164 9.85451 10.0767 9.77786 10.2164 9.75147Z" fill="white" fill-opacity="0.2"/>
<path d="M7.00011 4.08333C7.57147 4.08333 8.1303 4.25105 8.60712 4.56584C9.08401 4.88072 9.45821 5.32887 9.68264 5.85441C9.90708 6.37997 9.97182 6.96014 9.86949 7.52238C9.76714 8.08457 9.5019 8.60442 9.10672 9.01717C8.71152 9.42989 8.20388 9.71766 7.64667 9.84432C7.08947 9.97097 6.50721 9.93115 5.97244 9.72982C5.43762 9.52843 4.97361 9.17403 4.63829 8.71126C4.30301 8.24852 4.11109 7.69737 4.08629 7.12647L4.08344 7L4.08629 6.87354C4.11891 6.12264 4.44008 5.41321 4.98294 4.89339C5.5258 4.37357 6.2485 4.08338 7.00011 4.08333Z" fill="white" fill-opacity="0.2"/>
<path d="M2.33344 6.41667C2.48207 6.41687 2.62527 6.47357 2.73334 6.5756C2.84145 6.67767 2.90635 6.81741 2.91507 6.96582C2.92377 7.11419 2.87542 7.26027 2.78006 7.37427C2.68468 7.48822 2.54935 7.56174 2.4018 7.57935L2.33344 7.58333H1.75011C1.60149 7.58317 1.4583 7.52639 1.35021 7.4244C1.24209 7.32233 1.1772 7.1826 1.16848 7.03418C1.15977 6.88576 1.20807 6.73975 1.30349 6.62573C1.39892 6.51173 1.53412 6.43821 1.68175 6.42066L1.75011 6.41667H2.33344Z" fill="white" fill-opacity="0.2"/>
<path d="M12.2501 6.41667C12.3987 6.41687 12.5419 6.47357 12.65 6.5756C12.7581 6.67767 12.823 6.81741 12.8317 6.96582C12.8404 7.11419 12.7921 7.26027 12.6967 7.37427C12.6013 7.48822 12.466 7.56174 12.3185 7.57935L12.2501 7.58333H11.6668C11.5182 7.58317 11.375 7.52639 11.2669 7.4244C11.1588 7.32233 11.0939 7.1826 11.0852 7.03418C11.0764 6.88576 11.1247 6.73975 11.2202 6.62573C11.3156 6.51173 11.4508 6.43821 11.5984 6.42066L11.6668 6.41667H12.2501Z" fill="white" fill-opacity="0.2"/>
<path d="M3.15831 2.69393C3.29767 2.66746 3.4418 2.69295 3.56391 2.76514L3.62429 2.80558L3.67898 2.85401L4.08743 3.26245C4.19205 3.36743 4.25266 3.50852 4.25719 3.65666C4.26168 3.80468 4.20981 3.94887 4.11192 4.05998C4.01394 4.1711 3.87715 4.24071 3.72968 4.2548C3.58214 4.26886 3.43449 4.2264 3.31725 4.13574L3.26256 4.08732L2.85411 3.67887C2.75399 3.57843 2.69376 3.44501 2.68492 3.30347C2.67614 3.16179 2.71922 3.02139 2.80626 2.90926C2.89335 2.79712 3.01883 2.72049 3.15831 2.69393Z" fill="white" fill-opacity="0.2"/>
<path d="M10.7331 2.68368C10.8877 2.68368 11.0362 2.74477 11.1455 2.85401C11.2459 2.95442 11.3064 3.08826 11.3153 3.22998C11.3242 3.37175 11.281 3.51195 11.194 3.62419L11.1455 3.67887L10.7371 4.08732C10.6321 4.19187 10.4915 4.25254 10.3435 4.25708C10.1953 4.2616 10.0507 4.20984 9.93956 4.11182C9.82846 4.01381 9.75879 3.87707 9.74474 3.72957C9.73068 3.58204 9.77371 3.43439 9.86437 3.31714L9.91279 3.26245L10.3207 2.85401C10.43 2.7447 10.5785 2.68372 10.7331 2.68368Z" fill="white" fill-opacity="0.2"/>
<path d="M7.00011 1.16667C7.14294 1.16672 7.28074 1.2193 7.38748 1.31421C7.49421 1.40913 7.56272 1.53979 7.57945 1.68164L7.58344 1.75V2.33333C7.58328 2.48201 7.526 2.62512 7.42394 2.73324C7.32191 2.84122 7.18259 2.90622 7.03429 2.91496C6.88592 2.92367 6.73984 2.87531 6.62584 2.77995C6.51185 2.68455 6.43835 2.54929 6.42076 2.40169L6.41677 2.33333V1.75C6.41677 1.59529 6.47828 1.44696 6.58767 1.33757C6.69706 1.22821 6.84543 1.16667 7.00011 1.16667Z" fill="white" fill-opacity="0.2"/>
</svg>
