<svg width="168" height="168" viewBox="0 0 168 168" fill="none" xmlns="http://www.w3.org/2000/svg">
<path d="M83.1902 14.049L83.9892 14L84.8163 14.049L85.2298 14.105L85.6574 14.196L86.4354 14.434C86.9727 14.6318 87.4836 14.8952 87.9563 15.218L88.6852 15.792L90.4725 17.318C104.612 29.0469 122.481 35.3451 140.86 35.077L143.257 35.007C144.824 34.9356 146.37 35.3913 147.647 36.3013C148.924 37.2112 149.859 38.5228 150.301 40.026C153.745 51.727 154.799 64.0001 153.4 76.116C152.001 88.2318 148.178 99.9433 142.158 110.554C136.137 121.165 128.043 130.459 118.355 137.884C108.667 145.309 97.5831 150.714 85.7625 153.776C84.6088 154.075 83.3978 154.075 82.244 153.776C70.4228 150.714 59.3385 145.311 49.6498 137.886C39.9611 130.461 31.8656 121.167 25.8445 110.556C19.8234 99.9452 15.9996 88.2335 14.6002 76.1173C13.2008 64.001 14.2545 51.7275 17.6985 40.026C18.1409 38.5228 19.0754 37.2112 20.3525 36.3013C21.6295 35.3913 23.1754 34.9356 24.7425 35.007C43.9293 35.8829 62.7526 29.5749 77.527 17.318L79.3703 15.743L80.0432 15.218C80.516 14.8952 81.0268 14.6318 81.5641 14.434L82.3491 14.196C82.6238 14.1297 82.9094 14.0806 83.1902 14.049Z" fill="url(#paint0_linear_23_63)"/>
<path d="M84.4557 0.0279847L85.3552 0.0820242L85.6534 0.099394L85.9487 0.138959L86.3984 0.199753L86.6927 0.240283L87.4474 0.400471L87.7852 0.472845L89.172 0.896476L89.3795 0.97271C90.5734 1.41227 91.7084 1.99797 92.7592 2.71548L92.9812 2.86699L93.9848 3.65635L94.1074 3.75381L94.2271 3.85514L96.1119 5.4657C110.021 16.9917 127.595 23.1833 145.671 22.9253L148.185 22.8519C151.393 22.7325 154.555 23.6088 157.239 25.3561L157.776 25.7218L158.297 26.1107C160.859 28.1026 162.738 30.8517 163.657 33.9763C167.701 47.7125 168.938 62.1208 167.296 76.3442C165.653 90.5675 161.165 104.316 154.097 116.772C147.03 129.227 137.527 140.137 126.155 148.852C114.783 157.567 101.773 163.91 87.8991 167.504C85.345 168.165 82.6631 168.165 80.109 167.504C66.2342 163.911 53.2235 157.569 41.8506 148.855C30.4776 140.14 20.9745 129.23 13.9059 116.774C6.83734 104.318 2.34762 90.5699 0.704664 76.3462C-0.938262 62.1225 0.298686 47.7139 4.34203 33.9773L4.5389 33.3578C5.58516 30.2844 7.57209 27.6113 10.2242 25.7218L10.7607 25.3561C13.4802 23.5853 16.6924 22.7086 19.9444 22.8568C38.8161 23.7182 57.3291 17.5217 71.8673 5.48211L73.9653 3.69012L74.1043 3.58204L75.0337 2.85637L75.2402 2.71548C76.2911 1.99792 77.4269 1.41228 78.6209 0.97271L78.837 0.893581L79.058 0.826032L79.9121 0.567414L80.1302 0.501795L80.3512 0.447755C80.9904 0.293588 81.6264 0.186309 82.2351 0.117729L82.4348 0.094569L82.6356 0.0829892L83.5041 0.0289497L83.9799 0L84.4557 0.0279847ZM83.12 7.97275L82.6607 8.03837C82.5074 8.06503 82.3546 8.09689 82.2052 8.13294L81.352 8.39156L80.9197 8.56622C80.493 8.75388 80.0842 8.9805 79.6989 9.24364L78.9673 9.81395L76.9638 11.5258C60.9032 24.8487 40.4406 31.7054 19.5834 30.7533C17.88 30.6758 16.1993 31.1712 14.8111 32.1602C13.423 33.1493 12.4074 34.5755 11.9265 36.2093L11.583 37.403C8.11343 49.7616 7.08476 62.6807 8.55843 75.4391C10.0797 88.609 14.2368 101.339 20.7821 112.873C27.3273 124.407 36.1274 134.509 46.6595 142.579C57.1918 150.65 69.241 156.524 82.0913 159.852C83.2671 160.156 84.4977 160.175 85.6804 159.909L85.9159 159.852C98.3638 156.627 110.06 151.013 120.354 143.328L121.346 142.577C131.548 134.759 140.125 125.034 146.601 113.948L147.221 112.871C153.766 101.337 157.921 88.6067 159.442 75.4371C160.915 62.6792 159.886 49.761 156.416 37.403L156.073 36.2093C155.592 34.5754 154.577 33.1493 153.188 32.1602C151.8 31.1712 150.12 30.6757 148.416 30.7533L145.81 30.8295L144.874 30.8382C125.226 30.9058 106.167 24.0756 91.0365 11.5258L89.0929 9.86799L88.3006 9.24364C87.9151 8.98049 87.5064 8.75387 87.0797 8.56622L86.6474 8.39156L85.802 8.13294L85.3368 8.03354L84.8871 7.97275L83.9886 7.91968L83.12 7.97275Z" fill="url(#paint1_linear_23_63)"/>
<defs>
<linearGradient id="paint0_linear_23_63" x1="84" y1="14" x2="84" y2="154" gradientUnits="userSpaceOnUse">
<stop offset="0.503003" stop-color="white"/>
<stop offset="1" stop-color="white" stop-opacity="0"/>
</linearGradient>
<linearGradient id="paint1_linear_23_63" x1="84" y1="0" x2="84" y2="168" gradientUnits="userSpaceOnUse">
<stop stop-color="white"/>
<stop offset="0.7" stop-color="white" stop-opacity="0"/>
</linearGradient>
</defs>
</svg>
