<svg width="32" height="32" viewBox="0 0 32 32" fill="none" xmlns="http://www.w3.org/2000/svg">
<path d="M8.0131 9.33334C8.74948 9.33334 9.34644 9.9303 9.34644 10.6667C9.34644 11.4031 8.74948 12 8.0131 12H8.00008C7.2637 12 6.66675 11.4031 6.66675 10.6667C6.66675 9.9303 7.2637 9.33334 8.00008 9.33334H8.0131Z" fill="white"/>
<path d="M12.0131 9.33334C12.7495 9.33334 13.3464 9.9303 13.3464 10.6667C13.3464 11.4031 12.7495 12 12.0131 12H12.0001C11.2637 12 10.6667 11.4031 10.6667 10.6667C10.6667 9.9303 11.2637 9.33334 12.0001 9.33334H12.0131Z" fill="white"/>
<path fill-rule="evenodd" clip-rule="evenodd" d="M25.3334 5.33334C26.3943 5.33334 27.4114 5.75507 28.1615 6.50522C28.9117 7.25536 29.3334 8.27248 29.3334 9.33334V22.6667C29.3334 23.7275 28.9117 24.7447 28.1615 25.4948C27.4114 26.2449 26.3943 26.6667 25.3334 26.6667H6.66675C5.60588 26.6667 4.58877 26.2449 3.83862 25.4948C3.08848 24.7447 2.66675 23.7275 2.66675 22.6667V9.33334C2.66675 8.27248 3.08848 7.25536 3.83862 6.50522C4.58877 5.75507 5.60588 5.33334 6.66675 5.33334H25.3334ZM6.66675 8.00001C6.31313 8.00001 5.97409 8.14059 5.72404 8.39063C5.47399 8.64068 5.33341 8.97972 5.33341 9.33334V22.6667C5.33341 23.0203 5.47399 23.3593 5.72404 23.6094C5.97409 23.8594 6.31313 24 6.66675 24H25.3334C25.687 24 26.0261 23.8594 26.2761 23.6094C26.5262 23.3593 26.6667 23.0203 26.6667 22.6667V9.33334C26.6667 8.97972 26.5262 8.64068 26.2761 8.39063C26.0573 8.17178 25.7703 8.03677 25.4649 8.00652L25.3334 8.00001H6.66675Z" fill="white"/>
</svg>
