<svg width="18" height="18" viewBox="0 0 18 18" fill="none" xmlns="http://www.w3.org/2000/svg">
<path d="M9 7.875C9.62132 7.875 10.125 8.37868 10.125 9C10.125 9.62132 9.62132 10.125 9 10.125C8.37868 10.125 7.875 9.62132 7.875 9C7.875 8.37868 8.37868 7.875 9 7.875Z" fill="#0F0F0F"/>
<path fill-rule="evenodd" clip-rule="evenodd" d="M9 1.5C9.41421 1.5 9.75 1.83579 9.75 2.25V3.04761C10.2802 3.11448 10.8003 3.25167 11.2961 3.45703C12.024 3.75856 12.6858 4.19997 13.2429 4.75708C13.8 5.31419 14.2414 5.97596 14.543 6.70386C14.7483 7.1996 14.884 7.71984 14.9509 8.25H15.75C16.1642 8.25 16.5 8.58579 16.5 9C16.5 9.41421 16.1642 9.75 15.75 9.75H14.9517C14.8848 10.2802 14.7483 10.8004 14.543 11.2961C14.2414 12.024 13.8 12.6858 13.2429 13.2429C12.6858 13.8 12.024 14.2414 11.2961 14.543C10.8004 14.7483 10.2801 14.8833 9.75 14.9502V15.75C9.75 16.1642 9.41421 16.5 9 16.5C8.58579 16.5 8.25 16.1642 8.25 15.75V14.9502C7.71987 14.8833 7.19957 14.7483 6.70386 14.543C5.97596 14.2414 5.31419 13.8 4.75708 13.2429C4.19997 12.6858 3.75856 12.024 3.45703 11.2961C3.25168 10.8004 3.11522 10.2802 3.04834 9.75H2.25C1.83579 9.75 1.5 9.41421 1.5 9C1.5 8.58579 1.83579 8.25 2.25 8.25H3.04907C3.11598 7.71984 3.25169 7.1996 3.45703 6.70386C3.75856 5.97596 4.19997 5.31419 4.75708 4.75708C5.31419 4.19997 5.97596 3.75856 6.70386 3.45703C7.1996 3.25169 7.71984 3.11598 8.25 3.04907V2.25C8.25 1.83579 8.58579 1.5 9 1.5ZM9 4.5C8.40907 4.5 7.82403 4.61664 7.27808 4.84277C6.73211 5.06892 6.23622 5.4005 5.81836 5.81836C5.4005 6.23622 5.06892 6.73211 4.84277 7.27808C4.61664 7.82403 4.5 8.40907 4.5 9L4.50513 9.22119C4.53049 9.73656 4.6449 10.2442 4.84277 10.7219C5.06892 11.2679 5.4005 11.7638 5.81836 12.1816C6.23622 12.5995 6.73211 12.9311 7.27808 13.1572C7.82403 13.3834 8.40907 13.5 9 13.5C9.59093 13.5 10.176 13.3834 10.7219 13.1572C11.2679 12.9311 11.7638 12.5995 12.1816 12.1816C12.5995 11.7638 12.9311 11.2679 13.1572 10.7219C13.3834 10.176 13.5 9.59093 13.5 9L13.4949 8.77881C13.4695 8.26344 13.3551 7.75581 13.1572 7.27808C12.9311 6.73211 12.5995 6.23622 12.1816 5.81836C11.7638 5.4005 11.2679 5.06892 10.7219 4.84277C10.2442 4.6449 9.73656 4.53049 9.22119 4.50513L9 4.5Z" fill="#0F0F0F"/>
</svg>
