<svg width="320" height="80" viewBox="0 0 320 80" fill="none" xmlns="http://www.w3.org/2000/svg">
<rect width="320" height="80" rx="14" fill="#DBDBDB"/>
<path d="M78.9007 19.9427L97.4577 25.2081L97.1824 26.178L75.8964 57.2616L73.0375 56.4505L92.2186 28.2171L82.6976 25.5156C80.7747 24.97 79.3396 24.8111 78.3924 25.0388C76.7409 25.416 75.2494 26.2982 73.918 27.6856L73.2575 27.1948L78.9007 19.9427Z" fill="#FD4444"/>
<path d="M124 33.2072C127.09 31.8325 130.18 30.4578 139.599 27.069C149.018 23.6801 164.674 18.3188 172.635 15.5913C180.597 12.8638 180.391 12.9326 180.148 13.0367C179.622 13.2615 178.797 13.6262 174.738 16.1381C171.167 18.3479 164.774 22.8428 160.144 26.4493C155.514 30.0558 152.905 32.7364 151.321 34.4267C149.202 36.6866 148.417 37.9915 147.828 39.1006C147.398 39.9113 147.373 40.77 147.614 41.6365C147.828 42.405 149.649 42.9237 153.685 43.307C156.405 43.5652 160.537 43.0716 168.427 41.3491C176.317 39.6265 187.853 36.4648 197.572 33.152C207.291 29.8392 214.844 26.4712 220.073 23.9113C225.303 21.3515 227.981 19.7019 229.567 18.6459C231.152 17.5898 231.564 17.1774 231.57 16.9306C231.583 16.4164 230.397 16.5442 229.671 16.613C229.284 16.6496 228.876 16.8192 221.866 20.7048C214.856 24.5903 201.261 32.2199 193.673 36.5626C186.086 40.9054 184.919 41.7302 183.597 42.8081C180.767 45.1143 179.141 46.9499 178.932 47.7466C178.834 48.1183 179.135 48.4745 179.859 48.7203C181.75 49.3623 184.259 49.1765 189.289 48.3162C193.176 47.6516 199.675 46.0126 210.486 41.9C221.296 37.7874 236.196 31.1201 244.593 27.2043C252.989 23.2886 254.431 22.3263 255.277 21.7274C256.123 21.1286 256.329 20.9224 256.332 20.7818C256.335 20.6412 256.129 20.5725 255.714 20.5715C255.299 20.5704 254.681 20.6392 250.277 22.9772C245.873 25.3152 237.702 29.9204 231.364 34.1142C225.027 38.3081 220.769 41.951 218.37 44.2057C215.971 46.4604 215.559 47.2165 215.347 47.7435C215.135 48.2704 215.135 48.5454 215.238 48.8245C215.341 49.1036 215.547 49.3785 216.202 49.6232C216.858 49.868 217.956 50.0742 220.891 49.9742C223.826 49.8742 228.564 49.4618 234.747 48.3902C240.929 47.3186 248.414 45.6002 257.076 42.7217C265.738 39.8432 275.351 35.8566 280.852 33.4248C286.353 30.9931 287.452 30.237 288.087 29.7444C288.721 29.2518 288.859 29.0456 289 28.4166" stroke="white" stroke-width="2" stroke-linecap="round"/>
<path d="M113.094 25.3999L118.236 27.6546L123.588 46.9438L128.379 36.0174C128.89 34.853 129.078 34.0692 128.944 33.6661C128.77 33.1238 128.311 32.6892 127.566 32.3624L126.909 32.0745L127.136 31.5575L133.731 34.4494L133.504 34.9664L132.834 34.6723C132.033 34.321 131.358 34.314 130.81 34.6514C130.475 34.8596 130.074 35.4946 129.609 36.5565L122.605 52.527L122.102 52.3064L116.302 31.571L111.186 43.238C110.675 44.4024 110.482 45.1841 110.607 45.5831C110.79 46.1296 111.249 46.5641 111.985 46.8868L112.655 47.1809L112.429 47.6979L105.834 44.806L106.06 44.289L106.717 44.577C107.527 44.9323 108.206 44.9413 108.754 44.604C109.09 44.3958 109.491 43.7607 109.956 42.6988L115.734 29.5229C115.466 28.6391 115.233 28.0315 115.034 27.6999C114.844 27.3725 114.514 26.9997 114.042 26.5818C113.808 26.3795 113.417 26.1578 112.867 25.9168L113.094 25.3999Z" fill="#C9AFCA"/>
<path d="M165.936 26.7624L173.839 50.0785L170.605 51.1743L152.958 38.0912L152.742 38.1645L158.537 55.2645L155.02 56.4568L147.117 33.1407L150.373 32.0371L168.04 45.1392L168.256 45.0659L162.452 27.9431L165.936 26.7624Z" fill="#446FFD"/>
<path d="M200.334 54.9703C198.887 54.9703 197.579 54.7027 196.41 54.1675C195.24 53.6225 194.314 52.8346 193.63 51.804C192.956 50.7734 192.619 49.5098 192.619 48.0134C192.619 46.7251 192.867 45.6647 193.363 44.8323C193.858 43.9998 194.527 43.3408 195.369 42.8552C196.212 42.3696 197.153 42.003 198.194 41.7552C199.234 41.5075 200.295 41.3192 201.375 41.1904C202.742 41.0318 203.852 40.903 204.705 40.8039C205.557 40.6949 206.176 40.5214 206.563 40.2836C206.949 40.0457 207.142 39.6593 207.142 39.1241V39.0201C207.142 37.7218 206.776 36.716 206.042 36.0025C205.319 35.2889 204.239 34.9322 202.802 34.9322C201.305 34.9322 200.126 35.2642 199.264 35.9281C198.412 36.5822 197.822 37.3106 197.495 38.1133L193.318 37.1619C193.813 35.7745 194.537 34.6547 195.488 33.8024C196.449 32.9402 197.554 32.3159 198.803 31.9294C200.052 31.533 201.365 31.3348 202.742 31.3348C203.654 31.3348 204.62 31.4438 205.641 31.6619C206.672 31.87 207.633 32.2565 208.525 32.8213C209.427 33.3862 210.165 34.1939 210.74 35.2443C211.315 36.2849 211.602 37.6376 211.602 39.3025V54.4648H207.261V51.3432H207.083C206.796 51.918 206.364 52.4828 205.79 53.0378C205.215 53.5928 204.477 54.0536 203.575 54.4202C202.673 54.7869 201.593 54.9703 200.334 54.9703ZM201.3 51.4026C202.529 51.4026 203.58 51.1598 204.452 50.6743C205.334 50.1887 206.003 49.5544 206.459 48.7715C206.924 47.9787 207.157 47.1314 207.157 46.2296V43.2863C206.999 43.4449 206.691 43.5935 206.236 43.7323C205.79 43.8611 205.279 43.9751 204.705 44.0742C204.13 44.1634 203.57 44.2476 203.025 44.3269C202.48 44.3962 202.024 44.4557 201.657 44.5053C200.795 44.6143 200.007 44.7976 199.294 45.0553C198.59 45.3129 198.025 45.6846 197.599 46.1701C197.183 46.6458 196.975 47.2801 196.975 48.0729C196.975 49.1729 197.381 50.0053 198.194 50.5702C199.006 51.1252 200.042 51.4026 201.3 51.4026Z" fill="#FD8544"/>
<path d="M224.403 23.2255L235.996 27.5771L235.768 28.1831L220.504 46.9415L218.718 46.2711L232.485 29.2247L226.537 26.992C225.335 26.5411 224.426 26.3634 223.808 26.4589C222.731 26.6127 221.73 27.0981 220.805 27.9152L220.408 27.5662L224.403 23.2255ZM236.365 27.2789L236.616 26.6092C237.933 28.0131 238.924 29.4587 239.591 30.9461C240.529 33.0688 241.019 35.333 241.062 37.7386C241.109 40.1335 240.708 42.4632 239.858 44.7276C238.621 48.0232 236.68 50.7211 234.036 52.8215C231.399 54.9365 228.548 56.0859 225.483 56.2696L225.704 55.6796C227.287 55.4369 228.734 54.8459 230.045 53.9067C231.362 52.9821 232.584 51.6336 233.71 49.861C234.851 48.0818 235.815 46.145 236.601 44.0507C237.451 41.7863 238.051 39.6527 238.403 37.65C238.688 36.0832 238.794 34.7827 238.721 33.7487C238.659 32.7187 238.452 31.6707 238.1 30.6047C237.748 29.5387 237.17 28.4301 236.365 27.2789ZM244.029 62.5579L243.807 63.1479C242.505 61.7374 241.521 60.2884 240.854 58.801C239.902 56.6849 239.404 54.4241 239.361 52.0185C239.318 49.613 239.719 47.2833 240.565 45.0295C241.802 41.7339 243.743 39.0359 246.387 36.9356C249.035 34.8246 251.886 33.6752 254.941 33.4875L254.689 34.1572C253.11 34.3893 251.665 34.9749 250.355 35.9142C249.044 36.8534 247.82 38.2073 246.683 39.9758C245.546 41.7444 244.585 43.6759 243.799 45.7702C242.945 48.0452 242.344 50.1788 241.997 52.1709C241.722 53.7417 241.616 55.0421 241.678 56.0721C241.736 57.1128 241.941 58.1661 242.293 59.2321C242.656 60.3021 243.234 61.4107 244.029 62.5579Z" fill="#29E235"/>
<path d="M42.6279 39.58C47.1575 37.5668 51.6871 35.5537 65.4955 30.591C79.3039 25.6282 102.254 17.7769 113.926 13.7826C125.597 9.78837 125.295 9.88903 124.938 10.0415C124.168 10.3708 122.959 10.9048 117.008 14.5833C111.773 17.8195 102.4 24.402 95.6135 29.6835C88.8267 34.965 85.0018 38.8906 82.679 41.3659C79.5734 44.6754 78.4224 46.5864 77.5592 48.2106C76.9283 49.3978 76.8912 50.6554 77.245 51.9243C77.5588 53.0497 80.2281 53.8093 86.1456 54.3706C90.1331 54.7488 96.19 54.0259 107.756 51.5033C119.323 48.9808 136.233 44.3505 150.481 39.4992C164.729 34.6478 175.801 29.7155 183.468 25.9668C191.135 22.2181 195.06 19.8023 197.385 18.2558C199.709 16.7093 200.313 16.1054 200.322 15.7439C200.341 14.991 198.602 15.1781 197.537 15.2788C196.969 15.3325 196.372 15.5808 186.096 21.271C175.819 26.9612 155.889 38.1342 144.766 44.4939C133.644 50.8536 131.933 52.0615 129.994 53.64C125.847 57.0174 123.462 59.7054 123.156 60.8721C123.013 61.4164 123.453 61.9382 124.514 62.2981C127.287 63.2382 130.966 62.9661 138.34 61.7064C144.037 60.733 153.565 58.3328 169.412 52.3101C185.26 46.2874 207.103 36.5237 219.412 30.7892C231.721 25.0548 233.835 23.6456 235.075 22.7686C236.315 21.8917 236.617 21.5897 236.621 21.3838C236.626 21.1779 236.324 21.0773 235.715 21.0758C235.107 21.0742 234.201 21.1749 227.745 24.5988C221.289 28.0227 209.311 34.7667 200.02 40.9084C190.729 47.05 184.488 52.3849 180.971 55.6867C177.454 58.9886 176.85 60.0958 176.539 60.8676C176.228 61.6393 176.228 62.0419 176.379 62.4506C176.53 62.8594 176.832 63.262 177.793 63.6204C178.754 63.9788 180.364 64.2808 184.667 64.1344C188.969 63.9879 195.914 63.384 204.978 61.8147C214.042 60.2453 225.014 57.7289 237.712 53.5134C250.41 49.298 264.502 43.4599 272.567 39.8987C280.631 36.3376 282.242 35.2304 283.172 34.509C284.103 33.7876 284.304 33.4856 284.511 32.5645" stroke="#0D0D0D" stroke-width="2" stroke-linecap="round"/>
</svg>
