<svg width="18" height="18" viewBox="0 0 18 18" fill="none" xmlns="http://www.w3.org/2000/svg">
<path fill-rule="evenodd" clip-rule="evenodd" d="M9.27832 1.50659C9.37163 1.49454 9.46574 1.50029 9.55591 1.52271C11.3417 1.65537 13.0286 2.42171 14.3035 3.69653C15.7099 5.10301 16.5 7.01094 16.5 9C16.5 9.98486 16.3063 10.9605 15.9294 11.8704C15.5526 12.7802 14.9998 13.6071 14.3035 14.3035C13.6071 14.9999 12.7802 15.5525 11.8704 15.9294C11.1314 16.2355 10.349 16.4191 9.55371 16.478C9.46372 16.5001 9.36991 16.5056 9.27686 16.4934L9 16.5C8.9076 16.5 8.81534 16.4968 8.72314 16.4934C8.62883 16.5058 8.53372 16.5002 8.44263 16.4773C7.64854 16.4182 6.86745 16.2351 6.12964 15.9294C5.21975 15.5525 4.39294 14.9999 3.69653 14.3035C3.00016 13.6071 2.44745 12.7802 2.07056 11.8704C1.69369 10.9605 1.5 9.98486 1.5 9C1.50005 7.01094 2.29005 5.10301 3.69653 3.69653C4.97122 2.42189 6.65786 1.65552 8.44336 1.52271C8.53374 1.5001 8.62812 1.49453 8.72168 1.50659C8.81426 1.50316 8.90702 1.5 9 1.5C9.09298 1.5 9.18574 1.50316 9.27832 1.50659ZM7.82446 12C8.08627 13.0141 8.47986 13.9929 8.99927 14.9106C9.51889 13.9928 9.91426 13.0143 10.1763 12H7.82446ZM11.7188 12C11.5046 12.9395 11.1899 13.8541 10.7798 14.729C10.9543 14.6748 11.1268 14.6131 11.2961 14.543C12.024 14.2414 12.6858 13.8 13.2429 13.2429C13.6143 12.8715 13.933 12.453 14.1943 12H11.7188ZM3.80566 12C4.06704 12.453 4.38572 12.8715 4.75708 13.2429C5.31418 13.8 5.97599 14.2414 6.70386 14.543C6.87268 14.6129 7.04486 14.6734 7.21875 14.7275C6.80896 13.8531 6.49386 12.939 6.27979 12H3.80566ZM3.19116 7.5C3.06569 7.98598 3.00002 8.48957 3 9C3 9.50718 3.06556 10.0111 3.19189 10.5H6.02637C5.98829 10.1595 5.96152 9.81693 5.94946 9.47314L5.94141 9C5.94141 8.49721 5.97084 7.99655 6.02637 7.5H3.19116ZM11.9736 7.5C12.0292 7.99656 12.0586 8.4972 12.0586 9C12.0586 9.50271 12.0299 10.0035 11.9744 10.5H14.8081C14.9344 10.0111 15 9.50718 15 9C15 8.48957 14.9343 7.98598 14.8088 7.5H11.9736ZM7.53735 7.5C7.47488 7.99593 7.44141 8.49674 7.44141 9L7.44873 9.42041C7.46141 9.78221 7.49231 10.1424 7.53735 10.5H10.4626C10.5252 10.0041 10.5586 9.50321 10.5586 9C10.5586 8.49673 10.5252 7.99593 10.4626 7.5H7.53735ZM7.21948 3.27026C6.29862 3.55632 5.45144 4.06275 4.75708 4.75708C4.38329 5.13087 4.06549 5.55 3.80566 6H6.28125C6.49547 5.06042 6.80928 4.14523 7.21948 3.27026ZM10.7798 3.27026C11.1901 4.14532 11.5045 5.0603 11.7188 6H14.1943C13.9345 5.55 13.6167 5.13087 13.2429 4.75708C12.5484 4.06259 11.7009 3.55628 10.7798 3.27026ZM8.99927 3.08862C8.47965 4.00651 8.08561 4.98565 7.82373 6H10.1763C9.91418 4.98549 9.51906 4.00665 8.99927 3.08862Z" fill="#0F0F0F"/>
</svg>
