<svg width="32" height="32" viewBox="0 0 32 32" fill="none" xmlns="http://www.w3.org/2000/svg">
<path d="M18.0221 25.9477L15.9983 28L13.9779 25.9477L14.9005 25.0073L15.9983 23.8921L18.0221 25.9477Z" fill="#0F0F0F"/>
<path d="M13.0794 11.0366L10.8079 13.3033L10.5093 13.6051L8.10354 16.0093L11.026 18.9299L13.5156 16.4419L15.5691 18.494L11.026 23.0308L4 16.0093L5.54008 14.4669L6.26816 13.7392L7.42576 12.5857L11.026 8.98446L13.0794 11.0366Z" fill="#0F0F0F"/>
<path d="M28 16.0093L20.9707 23.0308L18.9172 20.982L23.8931 16.0093L20.9707 13.0887L18.4844 15.5734L16.4309 13.5213L20.9707 8.98446L28 16.0093Z" fill="#0F0F0F"/>
<path d="M18.0494 6.05035L15.9977 8.10074L13.946 6.05035L15.9977 4L18.0494 6.05035Z" fill="#0F0F0F"/>
</svg>
