<svg width="32" height="32" viewBox="0 0 32 32" fill="none" xmlns="http://www.w3.org/2000/svg">
<path d="M9.33329 20C10.0697 20 10.6666 20.597 10.6666 21.3333V21.3464C10.6666 22.0827 10.0697 22.6797 9.33329 22.6797C8.59691 22.6797 7.99996 22.0827 7.99996 21.3464V21.3333C7.99996 20.597 8.59691 20 9.33329 20Z" fill="#0F0F0F"/>
<path d="M9.33329 9.33333C10.0697 9.33333 10.6666 9.93029 10.6666 10.6667V10.6797C10.6666 11.4161 10.0697 12.013 9.33329 12.013C8.59691 12.013 7.99996 11.4161 7.99996 10.6797V10.6667C7.99996 9.93029 8.59691 9.33333 9.33329 9.33333Z" fill="#0F0F0F"/>
<path fill-rule="evenodd" clip-rule="evenodd" d="M24 4C25.4144 4 26.7706 4.56231 27.7708 5.5625C28.771 6.56269 29.3333 7.91885 29.3333 9.33333V12C29.3333 13.4145 28.771 14.7706 27.7708 15.7708C27.6913 15.8504 27.6086 15.9261 27.5247 16C27.6086 16.0739 27.6913 16.1496 27.7708 16.2292C28.771 17.2294 29.3333 18.5855 29.3333 20V22.6667C29.3333 24.0812 28.771 25.4373 27.7708 26.4375C26.7706 27.4377 25.4144 28 24 28H7.99996C6.58547 28 5.22932 27.4377 4.22913 26.4375C3.22893 25.4373 2.66663 24.0812 2.66663 22.6667V20C2.66663 18.5855 3.22893 17.2294 4.22913 16.2292C4.30842 16.1499 4.3903 16.0737 4.47392 16C4.3903 15.9263 4.30842 15.8501 4.22913 15.7708C3.22893 14.7706 2.66663 13.4145 2.66663 12V9.33333C2.66663 7.91885 3.22893 6.56269 4.22913 5.5625C5.22932 4.56231 6.58547 4 7.99996 4H24ZM7.99996 17.3333C7.29272 17.3333 6.61464 17.6145 6.11454 18.1146C5.61445 18.6147 5.33329 19.2928 5.33329 20V22.6667L5.34631 22.9297C5.40682 23.5404 5.67683 24.1144 6.11454 24.5521C6.61464 25.0522 7.29272 25.3333 7.99996 25.3333H24L24.263 25.3203C24.8736 25.2598 25.4477 24.9898 25.8854 24.5521C26.3231 24.1144 26.5931 23.5404 26.6536 22.9297L26.6666 22.6667V20C26.6666 19.2928 26.3855 18.6147 25.8854 18.1146C25.3853 17.6145 24.7072 17.3333 24 17.3333H7.99996ZM7.99996 6.66667C7.29272 6.66667 6.61464 6.94782 6.11454 7.44792C5.61445 7.94801 5.33329 8.62609 5.33329 9.33333V12L5.34631 12.263C5.40682 12.8737 5.67683 13.4477 6.11454 13.8854C6.61464 14.3855 7.29272 14.6667 7.99996 14.6667H24C24.7072 14.6667 25.3853 14.3855 25.8854 13.8854C26.3231 13.4477 26.5931 12.8737 26.6536 12.263L26.6666 12V9.33333C26.6666 8.62609 26.3855 7.94801 25.8854 7.44792C25.3853 6.94782 24.7072 6.66667 24 6.66667H7.99996Z" fill="#0F0F0F"/>
</svg>
