<svg width="32" height="32" viewBox="0 0 32 32" fill="none" xmlns="http://www.w3.org/2000/svg">
<path d="M8.01298 9.3335C8.74936 9.3335 9.34631 9.93045 9.34631 10.6668C9.34631 11.4032 8.74936 12.0002 8.01298 12.0002H7.99996C7.26358 12.0002 6.66663 11.4032 6.66663 10.6668C6.66663 9.93045 7.26358 9.3335 7.99996 9.3335H8.01298Z" fill="#0F0F0F"/>
<path d="M12.013 9.3335C12.7494 9.3335 13.3463 9.93045 13.3463 10.6668C13.3463 11.4032 12.7494 12.0002 12.013 12.0002H12C11.2636 12.0002 10.6666 11.4032 10.6666 10.6668C10.6666 9.93045 11.2636 9.3335 12 9.3335H12.013Z" fill="#0F0F0F"/>
<path fill-rule="evenodd" clip-rule="evenodd" d="M25.3333 5.3335C26.3942 5.3335 27.4113 5.75523 28.1614 6.50537C28.9116 7.25552 29.3333 8.27263 29.3333 9.3335V22.6668C29.3333 23.7277 28.9116 24.7448 28.1614 25.495C27.4113 26.2451 26.3942 26.6668 25.3333 26.6668H6.66663C5.60576 26.6668 4.58865 26.2451 3.8385 25.495C3.08836 24.7448 2.66663 23.7277 2.66663 22.6668V9.3335C2.66663 8.27263 3.08836 7.25552 3.8385 6.50537C4.58865 5.75523 5.60576 5.3335 6.66663 5.3335H25.3333ZM6.66663 8.00016C6.313 8.00016 5.97397 8.14074 5.72392 8.39079C5.47387 8.64084 5.33329 8.97987 5.33329 9.3335V22.6668C5.33329 23.0205 5.47387 23.3595 5.72392 23.6095C5.97397 23.8596 6.313 24.0002 6.66663 24.0002H25.3333C25.6869 24.0002 26.026 23.8596 26.276 23.6095C26.5261 23.3595 26.6666 23.0204 26.6666 22.6668V9.3335C26.6666 8.97987 26.5261 8.64084 26.276 8.39079C26.0571 8.17193 25.7701 8.03693 25.4648 8.00667L25.3333 8.00016H6.66663Z" fill="#0F0F0F"/>
</svg>
