<svg width="18" height="18" viewBox="0 0 18 18" fill="none" xmlns="http://www.w3.org/2000/svg">
<g clip-path="url(#clip0_90_126)">
<path d="M3 11.25C3.41421 11.25 3.75 11.5858 3.75 12V13.5L3.75366 13.574C3.77068 13.7457 3.84662 13.9072 3.96973 14.0303C4.11038 14.1709 4.30109 14.25 4.5 14.25H6C6.41421 14.25 6.75 14.5858 6.75 15C6.75 15.4142 6.41421 15.75 6 15.75H4.5C3.90326 15.75 3.33114 15.5128 2.90918 15.0908C2.48722 14.6689 2.25 14.0967 2.25 13.5V12C2.25 11.5858 2.58579 11.25 3 11.25Z" fill="#0F0F0F"/>
<path d="M15 11.25C15.4142 11.25 15.75 11.5858 15.75 12V13.5C15.75 14.0967 15.5128 14.6689 15.0908 15.0908C14.6689 15.5128 14.0967 15.75 13.5 15.75H12C11.5858 15.75 11.25 15.4142 11.25 15C11.25 14.5858 11.5858 14.25 12 14.25H13.5C13.6989 14.25 13.8896 14.1709 14.0303 14.0303C14.1709 13.8896 14.25 13.6989 14.25 13.5V12C14.25 11.5858 14.5858 11.25 15 11.25Z" fill="#0F0F0F"/>
<path d="M9 8.25C9.41413 8.2501 9.75 8.58585 9.75 9C9.75 9.41415 9.41413 9.7499 9 9.75H8.99268C8.57846 9.75 8.24268 9.41421 8.24268 9C8.24268 8.58579 8.57846 8.25 8.99268 8.25H9Z" fill="#0F0F0F"/>
<path fill-rule="evenodd" clip-rule="evenodd" d="M9 5.625C10.6172 5.625 12.0567 6.74754 13.3433 8.5415C13.347 8.54634 13.3506 8.55124 13.3542 8.55615C13.3562 8.55881 13.3582 8.56155 13.3601 8.56421C13.3623 8.56724 13.3639 8.57068 13.366 8.57373C13.3763 8.58861 13.3861 8.60365 13.3953 8.61914C13.4018 8.63021 13.4077 8.64155 13.4136 8.65283C13.4185 8.66234 13.4237 8.67171 13.4282 8.6814C13.4351 8.69592 13.4414 8.71054 13.4473 8.72534C13.4496 8.73117 13.4517 8.73704 13.4539 8.74292C13.4602 8.76035 13.4657 8.77795 13.4707 8.79565C13.4727 8.80273 13.4748 8.80977 13.4766 8.81689C13.4794 8.82808 13.4816 8.83933 13.4839 8.85059C13.4867 8.86445 13.4892 8.87833 13.4912 8.89233C13.493 8.90454 13.4944 8.91671 13.4956 8.92896C13.4967 8.94017 13.4972 8.95139 13.4978 8.96265C13.4984 8.97512 13.4985 8.98754 13.4985 9C13.4985 9.01222 13.4984 9.02439 13.4978 9.03662C13.4972 9.04813 13.4967 9.05959 13.4956 9.07104C13.4945 9.0828 13.4929 9.09448 13.4912 9.1062C13.4892 9.11997 13.4866 9.13357 13.4839 9.14722C13.4818 9.1575 13.4798 9.16775 13.4773 9.17798C13.4747 9.18881 13.4716 9.19949 13.4685 9.21021C13.4646 9.22367 13.4608 9.23718 13.4561 9.25049C13.4522 9.26135 13.4479 9.27202 13.4436 9.28271C13.4388 9.29453 13.4337 9.30624 13.4282 9.31787C13.4231 9.32876 13.4177 9.33944 13.4121 9.3501C13.4073 9.35914 13.4027 9.36829 13.3975 9.3772C13.3812 9.40524 13.3633 9.4325 13.3433 9.4585C12.0567 11.2525 10.6172 12.375 9 12.375C7.38266 12.375 5.94265 11.2527 4.65601 9.4585C4.63596 9.43251 4.61807 9.40523 4.60181 9.3772C4.60065 9.37521 4.59928 9.37333 4.59814 9.37134L4.57617 9.32886C4.5744 9.32522 4.57275 9.32153 4.57104 9.31787C4.56558 9.30624 4.56048 9.29452 4.55566 9.28271C4.55133 9.27203 4.54704 9.26134 4.54321 9.25049C4.53849 9.23719 4.5347 9.22366 4.53076 9.21021C4.52765 9.1995 4.52461 9.1888 4.52197 9.17798C4.51948 9.16776 4.51744 9.15749 4.51538 9.14722C4.51266 9.13359 4.51002 9.11996 4.50806 9.1062C4.50639 9.09449 4.50477 9.08279 4.50366 9.07104C4.50257 9.0596 4.50203 9.04812 4.50146 9.03662C4.50121 9.03125 4.50088 9.02588 4.50073 9.02051V8.97949C4.50088 8.97387 4.50119 8.96827 4.50146 8.96265C4.50203 8.9514 4.50259 8.94016 4.50366 8.92896C4.50433 8.92187 4.50499 8.91479 4.50586 8.90771L4.51025 8.87695C4.51173 8.86807 4.51432 8.85941 4.51611 8.85059C4.51839 8.83939 4.51991 8.82802 4.52271 8.81689C4.52449 8.80977 4.52657 8.80272 4.52856 8.79565C4.53357 8.77796 4.53905 8.76033 4.54541 8.74292C4.54755 8.73704 4.54971 8.73117 4.552 8.72534C4.55787 8.71046 4.5649 8.696 4.57178 8.6814C4.57627 8.67181 4.58078 8.66224 4.58569 8.65283C4.5916 8.64156 4.59747 8.6302 4.604 8.61914C4.61312 8.60366 4.62302 8.58861 4.6333 8.57373C4.63549 8.57056 4.63765 8.56736 4.63989 8.56421C4.64171 8.56166 4.6432 8.5587 4.64502 8.55615C4.64862 8.55124 4.65227 8.54634 4.65601 8.5415C5.94265 6.74734 7.38266 5.625 9 5.625ZM9 7.125C8.20393 7.125 7.26048 7.63558 6.1875 8.99927C7.26075 10.3636 8.20376 10.875 9 10.875C9.79617 10.875 10.7386 10.3633 11.8118 8.99927C10.7389 7.63584 9.796 7.125 9 7.125Z" fill="#0F0F0F"/>
<path d="M6 2.25C6.41421 2.25 6.75 2.58579 6.75 3C6.75 3.41421 6.41421 3.75 6 3.75H4.5C4.30109 3.75 4.11038 3.82907 3.96973 3.96973C3.82907 4.11038 3.75 4.30109 3.75 4.5V6C3.75 6.41421 3.41421 6.75 3 6.75C2.58579 6.75 2.25 6.41421 2.25 6V4.5C2.25 3.90326 2.48722 3.33114 2.90918 2.90918C3.33114 2.48722 3.90326 2.25 4.5 2.25H6Z" fill="#0F0F0F"/>
<path d="M13.5 2.25C14.0967 2.25 14.6689 2.48722 15.0908 2.90918C15.5128 3.33114 15.75 3.90326 15.75 4.5V6C15.75 6.41421 15.4142 6.75 15 6.75C14.5858 6.75 14.25 6.41421 14.25 6V4.5C14.25 4.30109 14.1709 4.11038 14.0303 3.96973C13.9072 3.84662 13.7457 3.77068 13.574 3.75366L13.5 3.75H12C11.5858 3.75 11.25 3.41421 11.25 3C11.25 2.58579 11.5858 2.25 12 2.25H13.5Z" fill="#0F0F0F"/>
</g>
<defs>
<clipPath id="clip0_90_126">
<rect width="18" height="18" fill="white"/>
</clipPath>
</defs>
</svg>
