<svg width="390" height="512" viewBox="0 0 390 512" fill="none" xmlns="http://www.w3.org/2000/svg">
<g clip-path="url(#clip0_50_44)">
<path d="M-156 140.5L-14 93L216 645L11.5 684L-156 140.5Z" fill="#FFB7FF" fill-opacity="0.25"/>
<path d="M-65 -172L84 -154L379.5 560.5H233L-65 -172Z" fill="url(#paint0_linear_50_44)" fill-opacity="0.61"/>
<path d="M132 -152H233.593L524.81 561H421.093L132 -152Z" fill="url(#paint1_linear_50_44)" fill-opacity="0.5"/>
<path d="M201.5 -152H233.5L270.5 -57L226.5 81L170.5 -57L201.5 -152Z" fill="white"/>
</g>
<path d="M389 1V472C389 493.539 371.539 511 350 511H40C18.4609 511 1 493.539 1 472V1H389Z" stroke="url(#paint2_linear_50_44)" stroke-width="2"/>
<defs>
<linearGradient id="paint0_linear_50_44" x1="16" y1="-104.5" x2="567" y2="926.5" gradientUnits="userSpaceOnUse">
<stop stop-color="white"/>
<stop offset="1" stop-color="#FFDBFF"/>
</linearGradient>
<linearGradient id="paint1_linear_50_44" x1="34" y1="-323" x2="463" y2="561" gradientUnits="userSpaceOnUse">
<stop stop-color="white"/>
<stop offset="1" stop-color="#FFE9FF"/>
</linearGradient>
<linearGradient id="paint2_linear_50_44" x1="195" y1="0" x2="195" y2="512" gradientUnits="userSpaceOnUse">
<stop stop-color="#FE8FFF" stop-opacity="0"/>
<stop offset="1" stop-color="#FE8FFF"/>
</linearGradient>
<clipPath id="clip0_50_44">
<path d="M0 0H390V472C390 494.091 372.091 512 350 512H40C17.9086 512 0 494.091 0 472V0Z" fill="white"/>
</clipPath>
</defs>
</svg>
