<svg width="389" height="509" viewBox="0 0 389 509" fill="none" xmlns="http://www.w3.org/2000/svg">
<g clip-path="url(#clip0_50_86)">
<path d="M200.334 0H301L70.1713 713H-31L200.334 0Z" fill="#212121"/>
<path d="M444.334 0H545L314.171 713H213L444.334 0Z" fill="#242424"/>
<path d="M-157 292.5L-15 245L215 797L10.5 836L-157 292.5Z" fill="#494949" fill-opacity="0.5"/>
<path d="M-66 -20L83 -2L378.5 712.5H232L-66 -20Z" fill="#303030" fill-opacity="0.3"/>
<path d="M286 488.5L342.5 625.5L314.5 713H213L286 488.5Z" fill="#484848" fill-opacity="0.51"/>
<path d="M131 0H232.593L523.81 713H420.093L131 0Z" fill="#242424" fill-opacity="0.3"/>
<path d="M86 353L149 158L205 296.5L142 491L86 353Z" fill="#3C3C3C" fill-opacity="0.51"/>
<path d="M200.5 0H232.5L269.5 95L225.5 233L169.5 95L200.5 0Z" fill="#2A2A2A" fill-opacity="0.52"/>
<path d="M305 429L350.5 289L407 429L361 568L305 429Z" fill="#303030" fill-opacity="0.51"/>
</g>
<defs>
<clipPath id="clip0_50_86">
<path d="M0 0H389V469C389 491.091 371.091 509 349 509H40C17.9086 509 0 491.091 0 469V0Z" fill="white"/>
</clipPath>
</defs>
</svg>
