<svg width="320" height="80" viewBox="0 0 320 80" fill="none" xmlns="http://www.w3.org/2000/svg">
<rect width="320" height="80" rx="14" fill="#1F1F1F"/>
<path d="M78.9007 19.9427L97.4577 25.2081L97.1824 26.178L75.8964 57.2616L73.0375 56.4505L92.2186 28.2171L82.6976 25.5156C80.7747 24.97 79.3396 24.8111 78.3924 25.0388C76.7409 25.416 75.2494 26.2982 73.918 27.6856L73.2575 27.1948L78.9007 19.9427Z" fill="#FD4444"/>
<path d="M124 33.2072C127.09 31.8325 130.18 30.4578 139.599 27.069C149.018 23.6801 164.674 18.3188 172.635 15.5913C180.597 12.8638 180.391 12.9326 180.148 13.0367C179.622 13.2615 178.797 13.6262 174.738 16.1381C171.167 18.3479 164.774 22.8428 160.144 26.4493C155.514 30.0558 152.905 32.7364 151.321 34.4267C149.202 36.6866 148.417 37.9915 147.828 39.1006C147.398 39.9113 147.373 40.77 147.614 41.6365C147.828 42.405 149.649 42.9237 153.685 43.307C156.405 43.5652 160.537 43.0716 168.427 41.3491C176.317 39.6265 187.853 36.4648 197.572 33.152C207.291 29.8392 214.844 26.4712 220.073 23.9113C225.303 21.3515 227.981 19.7019 229.567 18.6459C231.152 17.5898 231.564 17.1774 231.57 16.9306C231.583 16.4164 230.397 16.5442 229.671 16.613C229.284 16.6496 228.876 16.8192 221.866 20.7048C214.856 24.5903 201.261 32.2199 193.673 36.5626C186.086 40.9054 184.919 41.7302 183.597 42.8081C180.767 45.1143 179.141 46.9499 178.932 47.7466C178.834 48.1183 179.135 48.4745 179.859 48.7203C181.75 49.3623 184.259 49.1765 189.289 48.3162C193.176 47.6516 199.675 46.0126 210.486 41.9C221.296 37.7874 236.196 31.1201 244.593 27.2043C252.989 23.2886 254.431 22.3263 255.277 21.7274C256.123 21.1286 256.329 20.9224 256.332 20.7818C256.335 20.6412 256.129 20.5725 255.714 20.5715C255.299 20.5704 254.681 20.6392 250.277 22.9772C245.873 25.3152 237.702 29.9204 231.364 34.1142C225.027 38.3081 220.769 41.951 218.37 44.2057C215.971 46.4604 215.559 47.2165 215.347 47.7435C215.135 48.2704 215.135 48.5454 215.238 48.8245C215.341 49.1036 215.547 49.3785 216.202 49.6232C216.858 49.868 217.956 50.0742 220.891 49.9742C223.826 49.8742 228.564 49.4618 234.747 48.3902C240.929 47.3186 248.414 45.6002 257.076 42.7217C265.738 39.8432 275.351 35.8566 280.852 33.4248C286.353 30.9931 287.452 30.237 288.087 29.7444C288.721 29.2518 288.859 29.0456 289 28.4166" stroke="white" stroke-width="2" stroke-linecap="round"/>
<path d="M113.094 25.4L118.236 27.6547L123.588 46.9439L128.379 36.0175C128.89 34.8531 129.078 34.0694 128.944 33.6662C128.77 33.1239 128.311 32.6893 127.566 32.3625L126.909 32.0746L127.136 31.5576L133.731 34.4495L133.504 34.9665L132.834 34.6724C132.033 34.3211 131.358 34.3142 130.81 34.6515C130.475 34.8597 130.074 35.4948 129.609 36.5567L122.605 52.5271L122.102 52.3065L116.302 31.5712L111.186 43.2381C110.675 44.4025 110.482 45.1842 110.607 45.5833C110.79 46.1297 111.249 46.5643 111.985 46.8869L112.655 47.181L112.429 47.698L105.834 44.8061L106.06 44.2891L106.717 44.5771C107.527 44.9324 108.206 44.9415 108.754 44.6041C109.09 44.3959 109.491 43.7609 109.956 42.699L115.734 29.523C115.466 28.6393 115.233 28.0316 115.034 27.7001C114.844 27.3726 114.514 26.9999 114.042 26.5819C113.808 26.3796 113.417 26.158 112.867 25.917L113.094 25.4Z" fill="#C9AFCA"/>
<path d="M165.936 26.7624L173.839 50.0785L170.605 51.1743L152.958 38.0912L152.742 38.1645L158.537 55.2645L155.02 56.4568L147.117 33.1407L150.373 32.0371L168.04 45.1392L168.256 45.0659L162.452 27.9431L165.936 26.7624Z" fill="#446FFD"/>
<path d="M200.334 54.9704C198.887 54.9704 197.579 54.7028 196.41 54.1677C195.24 53.6226 194.314 52.8348 193.63 51.8041C192.956 50.7735 192.619 49.5099 192.619 48.0135C192.619 46.7252 192.867 45.6649 193.363 44.8324C193.858 44 194.527 43.341 195.369 42.8554C196.212 42.3698 197.153 42.0031 198.194 41.7553C199.234 41.5076 200.295 41.3193 201.375 41.1905C202.742 41.0319 203.852 40.9031 204.705 40.804C205.557 40.695 206.176 40.5215 206.563 40.2837C206.949 40.0459 207.142 39.6594 207.142 39.1242V39.0202C207.142 37.722 206.776 36.7161 206.042 36.0026C205.319 35.2891 204.239 34.9323 202.802 34.9323C201.305 34.9323 200.126 35.2643 199.264 35.9282C198.412 36.5823 197.822 37.3107 197.495 38.1134L193.318 37.162C193.813 35.7746 194.537 34.6548 195.488 33.8025C196.449 32.9404 197.554 32.316 198.803 31.9295C200.052 31.5331 201.365 31.3349 202.742 31.3349C203.654 31.3349 204.62 31.444 205.641 31.662C206.672 31.8701 207.633 32.2566 208.525 32.8215C209.427 33.3863 210.165 34.194 210.74 35.2445C211.315 36.285 211.602 37.6377 211.602 39.3026V54.465H207.261V51.3433H207.083C206.796 51.9181 206.364 52.483 205.79 53.0379C205.215 53.5929 204.477 54.0537 203.575 54.4204C202.673 54.787 201.593 54.9704 200.334 54.9704ZM201.3 51.4028C202.529 51.4028 203.58 51.16 204.452 50.6744C205.334 50.1888 206.003 49.5545 206.459 48.7717C206.924 47.9788 207.157 47.1315 207.157 46.2297V43.2864C206.999 43.445 206.691 43.5937 206.236 43.7324C205.79 43.8612 205.279 43.9752 204.705 44.0743C204.13 44.1635 203.57 44.2477 203.025 44.327C202.48 44.3964 202.024 44.4558 201.657 44.5054C200.795 44.6144 200.007 44.7977 199.294 45.0554C198.59 45.313 198.025 45.6847 197.599 46.1703C197.183 46.6459 196.975 47.2802 196.975 48.073C196.975 49.173 197.381 50.0055 198.194 50.5703C199.006 51.1253 200.042 51.4028 201.3 51.4028Z" fill="#FD8544"/>
<path d="M224.403 23.2256L235.996 27.5772L235.768 28.1832L220.504 46.9416L218.718 46.2712L232.485 29.2248L226.537 26.9921C225.335 26.5412 224.426 26.3635 223.808 26.459C222.731 26.6128 221.73 27.0983 220.805 27.9153L220.408 27.5663L224.403 23.2256ZM236.365 27.2791L236.616 26.6093C237.933 28.0132 238.924 29.4588 239.591 30.9462C240.529 33.069 241.019 35.3331 241.062 37.7387C241.109 40.1336 240.708 42.4633 239.858 44.7277C238.621 48.0233 236.68 50.7213 234.036 52.8216C231.399 54.9366 228.548 56.086 225.483 56.2697L225.704 55.6797C227.287 55.437 228.734 54.8461 230.045 53.9068C231.362 52.9823 232.584 51.6337 233.71 49.8611C234.851 48.0819 235.815 46.1451 236.601 44.0508C237.451 41.7864 238.051 39.6529 238.403 37.6501C238.688 36.0833 238.794 34.7829 238.721 33.7489C238.659 32.7188 238.452 31.6708 238.1 30.6048C237.748 29.5388 237.17 28.4302 236.365 27.2791ZM244.029 62.558L243.807 63.148C242.505 61.7375 241.521 60.2886 240.854 58.8012C239.902 56.685 239.404 54.4242 239.361 52.0186C239.318 49.6131 239.719 47.2834 240.565 45.0296C241.802 41.734 243.743 39.0361 246.387 36.9357C249.035 34.8247 251.886 33.6753 254.941 33.4876L254.689 34.1573C253.11 34.3894 251.665 34.9751 250.355 35.9143C249.044 36.8535 247.82 38.2074 246.683 39.976C245.546 41.7445 244.585 43.676 243.799 45.7703C242.945 48.0453 242.344 50.1789 241.997 52.171C241.722 53.7418 241.616 55.0422 241.678 56.0723C241.736 57.1129 241.941 58.1662 242.293 59.2322C242.656 60.3022 243.234 61.4108 244.029 62.558Z" fill="#29E235"/>
<path d="M42.6279 39.58C47.1575 37.5668 51.6871 35.5537 65.4955 30.591C79.3039 25.6282 102.254 17.7769 113.926 13.7826C125.597 9.78837 125.295 9.88903 124.938 10.0415C124.168 10.3708 122.959 10.9048 117.008 14.5833C111.773 17.8195 102.4 24.402 95.6135 29.6835C88.8267 34.965 85.0018 38.8906 82.679 41.3659C79.5734 44.6754 78.4224 46.5864 77.5592 48.2106C76.9283 49.3978 76.8912 50.6554 77.245 51.9243C77.5588 53.0497 80.2281 53.8093 86.1456 54.3706C90.1331 54.7488 96.19 54.0259 107.756 51.5033C119.323 48.9808 136.233 44.3505 150.481 39.4992C164.729 34.6478 175.801 29.7155 183.468 25.9668C191.135 22.2181 195.06 19.8023 197.385 18.2558C199.709 16.7093 200.313 16.1054 200.322 15.7439C200.341 14.991 198.602 15.1781 197.537 15.2788C196.969 15.3325 196.372 15.5808 186.096 21.271C175.819 26.9612 155.889 38.1342 144.766 44.4939C133.644 50.8536 131.933 52.0615 129.994 53.64C125.847 57.0174 123.462 59.7054 123.156 60.8721C123.013 61.4164 123.453 61.9382 124.514 62.2981C127.287 63.2382 130.966 62.9661 138.34 61.7064C144.037 60.733 153.565 58.3328 169.412 52.3101C185.26 46.2874 207.103 36.5237 219.412 30.7892C231.721 25.0548 233.835 23.6456 235.075 22.7686C236.315 21.8917 236.617 21.5897 236.621 21.3838C236.626 21.1779 236.324 21.0773 235.715 21.0758C235.107 21.0742 234.201 21.1749 227.745 24.5988C221.289 28.0227 209.311 34.7667 200.02 40.9084C190.729 47.05 184.488 52.3849 180.971 55.6867C177.454 58.9886 176.85 60.0958 176.539 60.8676C176.228 61.6393 176.228 62.0419 176.379 62.4506C176.53 62.8594 176.832 63.262 177.793 63.6204C178.754 63.9788 180.364 64.2808 184.667 64.1344C188.969 63.9879 195.914 63.384 204.978 61.8147C214.042 60.2453 225.014 57.7289 237.712 53.5134C250.41 49.298 264.502 43.4599 272.567 39.8987C280.631 36.3376 282.242 35.2304 283.172 34.509C284.103 33.7876 284.304 33.4856 284.511 32.5645" stroke="#0D0D0D" stroke-width="2" stroke-linecap="round"/>
</svg>
