<svg width="1872" height="713" viewBox="0 0 1872 713" fill="none" xmlns="http://www.w3.org/2000/svg">
<g clip-path="url(#clip0_21_30)">
<path d="M200.334 0H301L70.1713 713H-31L200.334 0Z" fill="#212121"/>
<path d="M444.334 0H545L314.171 713H213L444.334 0Z" fill="#242424"/>
<path d="M-157 292.5L-15 245L215 797L10.5 836L-157 292.5Z" fill="#494949"/>
<path d="M-66 -20L83 -2L378.5 712.5H232L-66 -20Z" fill="#303030" fill-opacity="0.5"/>
<path d="M286 488.5L342.5 625.5L314.5 713H213L286 488.5Z" fill="#484848" fill-opacity="0.81"/>
<path d="M131 0H232.593L523.81 713H420.093L131 0Z" fill="#242424" fill-opacity="0.5"/>
<path d="M86 353L149 158L205 296.5L142 491L86 353Z" fill="#3C3C3C" fill-opacity="0.81"/>
<path d="M200.5 0H232.5L269.5 95L225.5 233L169.5 95L200.5 0Z" fill="#2A2A2A" fill-opacity="0.82"/>
<path d="M305 429L350.5 289L407 429L361 568L305 429Z" fill="#303030" fill-opacity="0.82"/>
<path d="M1663.67 0H1563L1793.83 713H1895L1663.67 0Z" fill="#212121"/>
<path d="M1419.67 0H1319L1549.83 713H1651L1419.67 0Z" fill="#242424"/>
<path d="M2021 292.5L1879 245L1649 797L1853.5 836L2021 292.5Z" fill="#494949"/>
<path d="M1930 -20L1781 -2L1485.5 712.5H1632L1930 -20Z" fill="#303030" fill-opacity="0.5"/>
<path d="M1578 488.5L1521.5 625.5L1549.5 713H1651L1578 488.5Z" fill="#484848" fill-opacity="0.81"/>
<path d="M1733 0H1631.41L1340.19 713H1443.91L1733 0Z" fill="#242424" fill-opacity="0.5"/>
<path d="M1778 353L1715 158L1659 296.5L1722 491L1778 353Z" fill="#3C3C3C" fill-opacity="0.81"/>
<path d="M1663.5 0H1631.5L1594.5 95L1638.5 233L1694.5 95L1663.5 0Z" fill="#2A2A2A" fill-opacity="0.82"/>
<path d="M1559 429L1513.5 289L1457 429L1503 568L1559 429Z" fill="#303030" fill-opacity="0.82"/>
</g>
<defs>
<clipPath id="clip0_21_30">
<path d="M0 0H1872V673C1872 695.091 1854.09 713 1832 713H40.0001C17.9087 713 0 695.091 0 673V0Z" fill="white"/>
</clipPath>
</defs>
</svg>
