<svg width="1872" height="713" viewBox="0 0 1872 713" fill="none" xmlns="http://www.w3.org/2000/svg">
<g clip-path="url(#clip0_87_41)">
<path d="M444.334 0H545L314.171 713H213L444.334 0Z" fill="url(#paint0_linear_87_41)"/>
<path d="M-157 292.5L-15 245L215 797L10.5 836L-157 292.5Z" fill="#FFB7FF" fill-opacity="0.91"/>
<path d="M200.334 0L270.5 94L70.1713 713H-31L200.334 0Z" fill="url(#paint1_linear_87_41)"/>
<path d="M61.5 428L118.5 564.5L61.5 747.5L-19 669L61.5 428Z" fill="#FF87FF"/>
<path d="M-66 -20L83 -2L378.5 712.5H232L-66 -20Z" fill="url(#paint2_linear_87_41)"/>
<path d="M286 488.5L342.5 625.5L314.5 713H213L286 488.5Z" fill="#FF87FF"/>
<path d="M131 0H232.593L523.81 713H420.093L131 0Z" fill="url(#paint3_linear_87_41)" fill-opacity="0.5"/>
<path d="M86 353L149 158L205 296.5L142 491L86 353Z" fill="#FFD5FF" fill-opacity="0.93"/>
<path d="M200.5 0H232.5L269.5 95L225.5 233L169.5 95L200.5 0Z" fill="white"/>
<path d="M305 429L350.5 289L407 429L361 568L305 429Z" fill="#FFE3FF" fill-opacity="0.73"/>
<path d="M1421.67 11H1321L1551.83 724H1653L1421.67 11Z" fill="url(#paint4_linear_87_41)"/>
<path d="M2023 303.5L1881 256L1651 808L1855.5 847L2023 303.5Z" fill="#FFB7FF" fill-opacity="0.91"/>
<path d="M1665.67 11L1595.5 105L1795.83 724H1897L1665.67 11Z" fill="url(#paint5_linear_87_41)"/>
<path d="M1804.5 439L1747.5 575.5L1804.5 758.5L1885 680L1804.5 439Z" fill="#FF87FF"/>
<path d="M1932 -9L1783 9L1487.5 723.5H1634L1932 -9Z" fill="url(#paint6_linear_87_41)"/>
<path d="M1580 499.5L1523.5 636.5L1551.5 724H1653L1580 499.5Z" fill="#FF87FF"/>
<path d="M1735 11H1633.41L1342.19 724H1445.91L1735 11Z" fill="url(#paint7_linear_87_41)" fill-opacity="0.5"/>
<path d="M1780 364L1717 169L1661 307.5L1724 502L1780 364Z" fill="#FFD5FF" fill-opacity="0.93"/>
<path d="M1665.5 11H1633.5L1596.5 106L1640.5 244L1696.5 106L1665.5 11Z" fill="white"/>
<path d="M1561 440L1515.5 300L1459 440L1505 579L1561 440Z" fill="#FFE3FF" fill-opacity="0.73"/>
</g>
<defs>
<linearGradient id="paint0_linear_87_41" x1="503.5" y1="78.5" x2="287" y2="654" gradientUnits="userSpaceOnUse">
<stop stop-color="white"/>
<stop offset="1" stop-color="#FFEDFF"/>
</linearGradient>
<linearGradient id="paint1_linear_87_41" x1="420" y1="-250" x2="-48.5" y2="753" gradientUnits="userSpaceOnUse">
<stop stop-color="white"/>
<stop offset="1" stop-color="#FFF2FF"/>
</linearGradient>
<linearGradient id="paint2_linear_87_41" x1="15" y1="47.5" x2="566" y2="1078.5" gradientUnits="userSpaceOnUse">
<stop stop-color="white"/>
<stop offset="1" stop-color="#FFDBFF"/>
</linearGradient>
<linearGradient id="paint3_linear_87_41" x1="33" y1="-171" x2="462" y2="713" gradientUnits="userSpaceOnUse">
<stop stop-color="white"/>
<stop offset="1" stop-color="#FFE9FF"/>
</linearGradient>
<linearGradient id="paint4_linear_87_41" x1="1362.5" y1="89.5" x2="1579" y2="665" gradientUnits="userSpaceOnUse">
<stop stop-color="white"/>
<stop offset="1" stop-color="#FFEDFF"/>
</linearGradient>
<linearGradient id="paint5_linear_87_41" x1="1446" y1="-239" x2="1914.5" y2="764" gradientUnits="userSpaceOnUse">
<stop stop-color="white"/>
<stop offset="1" stop-color="#FFF2FF"/>
</linearGradient>
<linearGradient id="paint6_linear_87_41" x1="1851" y1="58.5" x2="1300" y2="1089.5" gradientUnits="userSpaceOnUse">
<stop stop-color="white"/>
<stop offset="1" stop-color="#FFDBFF"/>
</linearGradient>
<linearGradient id="paint7_linear_87_41" x1="1833" y1="-160" x2="1404" y2="724" gradientUnits="userSpaceOnUse">
<stop stop-color="white"/>
<stop offset="1" stop-color="#FFE9FF"/>
</linearGradient>
<clipPath id="clip0_87_41">
<path d="M0 0H1872V673C1872 695.091 1854.09 713 1832 713H40.0001C17.9087 713 0 695.091 0 673V0Z" fill="white"/>
</clipPath>
</defs>
</svg>
