<svg width="1740" height="1080" viewBox="0 0 1740 1080" fill="none" xmlns="http://www.w3.org/2000/svg">
<path d="M1016.6 1588.21L869.88 1737L723.398 1588.21L790.287 1520.03L869.88 1439.18L1016.6 1588.21Z" fill="url(#paint0_linear_447_40)" fill-opacity="0.05"/>
<path d="M658.259 507.153L493.571 671.49L471.923 693.369L297.506 867.674L509.385 1079.42L689.883 899.036L838.757 1047.81L509.385 1376.73L0 867.674L111.656 755.848L164.442 703.095L248.368 619.467L509.385 358.373L658.259 507.153Z" fill="url(#paint1_linear_447_40)" fill-opacity="0.05"/>
<path d="M1740 867.674L1230.37 1376.73L1081.5 1228.2L1442.25 867.674L1230.37 655.93L1050.12 836.071L901.243 687.294L1230.37 358.373L1740 867.674Z" fill="url(#paint2_linear_447_40)" fill-opacity="0.05"/>
<path d="M1018.58 145.651L869.833 294.303L721.088 145.651L869.833 -3L1018.58 145.651Z" fill="url(#paint3_linear_447_40)" fill-opacity="0.05"/>
<defs>
<linearGradient id="paint0_linear_447_40" x1="870" y1="-3" x2="870" y2="1737" gradientUnits="userSpaceOnUse">
<stop stop-color="white" stop-opacity="0"/>
<stop offset="1" stop-color="white"/>
</linearGradient>
<linearGradient id="paint1_linear_447_40" x1="870" y1="-3" x2="870" y2="1737" gradientUnits="userSpaceOnUse">
<stop stop-color="white" stop-opacity="0"/>
<stop offset="1" stop-color="white"/>
</linearGradient>
<linearGradient id="paint2_linear_447_40" x1="870" y1="-3" x2="870" y2="1737" gradientUnits="userSpaceOnUse">
<stop stop-color="white" stop-opacity="0"/>
<stop offset="1" stop-color="white"/>
</linearGradient>
<linearGradient id="paint3_linear_447_40" x1="870" y1="-3" x2="870" y2="1737" gradientUnits="userSpaceOnUse">
<stop stop-color="white" stop-opacity="0"/>
<stop offset="1" stop-color="white"/>
</linearGradient>
</defs>
</svg>
